<svg xmlns="http://www.w3.org/2000/svg" width="384.652" height="742.406" viewBox="0 0 384.652 742.406">
  <path id="O" class="cls-1" d="M900,133c44.575-.314,74.938,5.642,101,23,36.35,24.212,59.08,65.353,76,109,58.02,149.678,40.87,494.543-60,575-21.972,17.526-46.612,28.352-81,34-29.008,4.764-57.864-3.474-76-11-97.3-40.38-109.129-148.587-128-269-4.982-31.791-9.617-89.134-4-125q3-45,6-90c15.453-89.455,31.85-171.9,91-217,13.193-10.059,30.58-18.713,48-24Zm8,131c-14.124,7.721-23.974,12.471-32,26-31.353,52.849-32.662,265.051-19,346,7.232,42.848,12.912,119.754,71,107,40.7-8.937,43.819-60.3,51-104,13.906-84.634,12.755-308.041-24-357C945.038,268.73,932.163,263.672,908,264Z" transform="translate(-725.438 -133)"/>
</svg>
