<?xml version="1.0" encoding="UTF-8"?>
<svg width="100px" heigth="100px" xmlns="http://www.w3.org/2000/svg">
<path d="m1279.8 0.012c82.979-1.165 117.31 81.73 91.989 164.01-11.218 36.453-38.972 56.588-54.993 87.007-6.224 11.816-2.939 31.409-7 46.003-17.663-0.333-35.331-0.667-52.994-1-0.16-32.965-1.269-68.231 10.999-89.007 16.299-27.601 52.555-55.124 41.995-107.01-3.282-16.126-24.636-37.585-39.995-18.001-12.961 16.527-7.725 40.292-13.999 65.005h-0.999c-18.663-3.667-37.331-7.334-55.994-11.001 1.621-53.993 15.091-103.19 48.994-125.01 9.433-6.071 20.6-6.31 31.997-11zm-1212.9 253.02v159.01c-22.329-0.334-44.664-0.667-66.992-1 0.333-135 0.666-270.03 1-405.03 65.167-0.718 140.59-8.726 168.98 28.002 33.811 43.737 39.274 174.49-14.998 200.02 17.663 59.332 35.331 118.68 52.994 178.01h-70.992c-0.666-0.334-1.333-0.667-2-1-12.664-52.666-25.331-105.35-37.995-158.01h-29.997zm259.97-175.01v91.006c14.157-0.238 82.074-3.246 87.99 2.001v70.005h-87.99v96.007c37.992 0.333 75.995 0.667 113.99 1-0.334 24.666-0.667 49.34-1 74.006-59.987-0.334-119.99-0.667-179.98-1 0.333-135 0.667-270.03 1-405.03 59.987 0.333 119.99 0.667 179.98 1-0.334 23.666-0.667 47.339-1 71.006h-112.99zm296.97 334.02c-4.666-27.666-9.333-55.341-13.998-83.007h-79.991c-4.666 27.666-9.333 55.341-13.999 83.007-15.006 0.303-51.885 5.329-61.993-2 29.327-134.66 58.663-269.37 87.99-404.03 11.786-0.255 61.821-2.631 66.993 2 27.994 134 55.996 268.03 83.99 402.03-0.333 0.666-0.666 1.333-1 2h-67.992zm111.99-406.03c118.19-1.095 167.38 3.411 194.98 95.007 29.181 96.855 8.777 260.64-54.994 299.02-20.291 12.213-50.345 12.001-82.99 12.001-19.329-0.334-38.664-0.667-57.994-1 0.334-135 0.667-270.03 1-405.03zm296.97 406.03v-172.01c-24.662-77.332-49.331-154.69-73.992-232.02 0.333-0.666 0.667-1.333 1-2 24.328 0.333 48.664 0.667 72.992 1 12.997 47.332 25.998 94.679 38.995 142.01 0.334-0.667 0.667-1.334 1-2 14.33-46.999 28.665-94.012 42.995-141.01 13.057-0.253 57.901-3.134 64.993 2-26.994 76.665-53.997 153.35-80.991 230.02-0.333 57.998-0.667 116.01-1 174.01h-65.992zm-965.89-338.03v111.01c19.865 0.555 41.833 1.292 50.994-9.001 17.923-20.137 17.039-83.65-4.999-98.007-9.425-6.141-30.934-4.416-45.995-4.001zm734.92 4.001v262.02c17.501 0.274 31.227-0.747 40.995-8 39.56-29.374 39.935-216.85 0-246.02-9.584-7-24.21-8.271-40.995-8zm-232.97 25.001c-8.665 51.333-17.332 102.68-25.997 154.01h53.994v-3c-9.331-50.332-18.665-100.68-27.997-151.01zm744.92 221.02v88.007c-19.996-0.334-39.998-0.667-59.993-1 0.333-29 0.666-58.008 1-87.007h58.993z" fill="#f7d24f" fill-rule="evenodd"/>
<path d="m1279.8 0.012c82.979-1.165 117.31 81.73 91.989 164.01-11.218 36.453-38.972 56.588-54.993 87.007-6.224 11.816-2.939 31.409-7 46.003-17.663-0.333-35.331-0.667-52.994-1-0.16-32.965-1.269-68.231 10.999-89.007 16.299-27.601 52.555-55.124 41.995-107.01-3.282-16.126-24.636-37.585-39.995-18.001-12.961 16.527-7.725 40.292-13.999 65.005h-0.999c-18.663-3.667-37.331-7.334-55.994-11.001 1.621-53.993 15.091-103.19 48.994-125.01 9.433-6.071 20.6-6.31 31.997-11zm-1212.9 253.02v159.01c-22.329-0.334-44.664-0.667-66.992-1 0.333-135 0.666-270.03 1-405.03 65.167-0.718 140.59-8.726 168.98 28.002 33.811 43.737 39.274 174.49-14.998 200.02 17.663 59.332 35.331 118.68 52.994 178.01h-70.992c-0.666-0.334-1.333-0.667-2-1-12.664-52.666-25.331-105.35-37.995-158.01h-29.997zm259.97-175.01v91.006c14.157-0.238 82.074-3.246 87.99 2.001v70.005h-87.99v96.007c37.992 0.333 75.995 0.667 113.99 1-0.334 24.666-0.667 49.34-1 74.006-59.987-0.334-119.99-0.667-179.98-1 0.333-135 0.667-270.03 1-405.03 59.987 0.333 119.99 0.667 179.98 1-0.334 23.666-0.667 47.339-1 71.006h-112.99zm296.97 334.02c-4.666-27.666-9.333-55.341-13.998-83.007h-79.991c-4.666 27.666-9.333 55.341-13.999 83.007-15.006 0.303-51.885 5.329-61.993-2 29.327-134.66 58.663-269.37 87.99-404.03 11.786-0.255 61.821-2.631 66.993 2 27.994 134 55.996 268.03 83.99 402.03-0.333 0.666-0.666 1.333-1 2h-67.992zm111.99-406.03c118.19-1.095 167.38 3.411 194.98 95.007 29.181 96.855 8.777 260.64-54.994 299.02-20.291 12.213-50.345 12.001-82.99 12.001-19.329-0.334-38.664-0.667-57.994-1 0.334-135 0.667-270.03 1-405.03zm296.97 406.03v-172.01c-24.662-77.332-49.331-154.69-73.992-232.02 0.333-0.666 0.667-1.333 1-2 24.328 0.333 48.664 0.667 72.992 1 12.997 47.332 25.998 94.679 38.995 142.01 0.334-0.667 0.667-1.334 1-2 14.33-46.999 28.665-94.012 42.995-141.01 13.057-0.253 57.901-3.134 64.993 2-26.994 76.665-53.997 153.35-80.991 230.02-0.333 57.998-0.667 116.01-1 174.01h-65.992zm-965.89-338.03v111.01c19.865 0.555 41.833 1.292 50.994-9.001 17.923-20.137 17.039-83.65-4.999-98.007-9.425-6.141-30.934-4.416-45.995-4.001zm734.92 4.001v262.02c17.501 0.274 31.227-0.747 40.995-8 39.56-29.374 39.935-216.85 0-246.02-9.584-7-24.21-8.271-40.995-8zm-232.97 25.001c-8.665 51.333-17.332 102.68-25.997 154.01h53.994v-3c-9.331-50.332-18.665-100.68-27.997-151.01zm744.92 221.02v88.007c-19.996-0.334-39.998-0.667-59.993-1 0.333-29 0.666-58.008 1-87.007h58.993z" fill="#f7d24f" fill-rule="evenodd"/>
<path d="m1279.8 0.012c82.979-1.165 117.31 81.73 91.989 164.01-11.218 36.453-38.972 56.588-54.993 87.007-6.224 11.816-2.939 31.409-7 46.003-17.663-0.333-35.331-0.667-52.994-1-0.16-32.965-1.269-68.231 10.999-89.007 16.299-27.601 52.555-55.124 41.995-107.01-3.282-16.126-24.636-37.585-39.995-18.001-12.961 16.527-7.725 40.292-13.999 65.005h-0.999c-18.663-3.667-37.331-7.334-55.994-11.001 1.621-53.993 15.091-103.19 48.994-125.01 9.433-6.071 20.6-6.31 31.997-11zm-1212.9 253.02v159.01c-22.329-0.334-44.664-0.667-66.992-1 0.333-135 0.666-270.03 1-405.03 65.167-0.718 140.59-8.726 168.98 28.002 33.811 43.737 39.274 174.49-14.998 200.02 17.663 59.332 35.331 118.68 52.994 178.01h-70.992c-0.666-0.334-1.333-0.667-2-1-12.664-52.666-25.331-105.35-37.995-158.01h-29.997zm259.97-175.01v91.006c14.157-0.238 82.074-3.246 87.99 2.001v70.005h-87.99v96.007c37.992 0.333 75.995 0.667 113.99 1-0.334 24.666-0.667 49.34-1 74.006-59.987-0.334-119.99-0.667-179.98-1 0.333-135 0.667-270.03 1-405.03 59.987 0.333 119.99 0.667 179.98 1-0.334 23.666-0.667 47.339-1 71.006h-112.99zm296.97 334.02c-4.666-27.666-9.333-55.341-13.998-83.007h-79.991c-4.666 27.666-9.333 55.341-13.999 83.007-15.006 0.303-51.885 5.329-61.993-2 29.327-134.66 58.663-269.37 87.99-404.03 11.786-0.255 61.821-2.631 66.993 2 27.994 134 55.996 268.03 83.99 402.03-0.333 0.666-0.666 1.333-1 2h-67.992zm111.99-406.03c118.19-1.095 167.38 3.411 194.98 95.007 29.181 96.855 8.777 260.64-54.994 299.02-20.291 12.213-50.345 12.001-82.99 12.001-19.329-0.334-38.664-0.667-57.994-1 0.334-135 0.667-270.03 1-405.03zm296.97 406.03v-172.01c-24.662-77.332-49.331-154.69-73.992-232.02 0.333-0.666 0.667-1.333 1-2 24.328 0.333 48.664 0.667 72.992 1 12.997 47.332 25.998 94.679 38.995 142.01 0.334-0.667 0.667-1.334 1-2 14.33-46.999 28.665-94.012 42.995-141.01 13.057-0.253 57.901-3.134 64.993 2-26.994 76.665-53.997 153.35-80.991 230.02-0.333 57.998-0.667 116.01-1 174.01h-65.992zm-965.89-338.03v111.01c19.865 0.555 41.833 1.292 50.994-9.001 17.923-20.137 17.039-83.65-4.999-98.007-9.425-6.141-30.934-4.416-45.995-4.001zm734.92 4.001v262.02c17.501 0.274 31.227-0.747 40.995-8 39.56-29.374 39.935-216.85 0-246.02-9.584-7-24.21-8.271-40.995-8zm-232.97 25.001c-8.665 51.333-17.332 102.68-25.997 154.01h53.994v-3c-9.331-50.332-18.665-100.68-27.997-151.01zm744.92 221.02v88.007c-19.996-0.334-39.998-0.667-59.993-1 0.333-29 0.666-58.008 1-87.007h58.993z" fill="#f7d24f" fill-rule="evenodd"/>
</svg>